Coordinates
version=1
nRows=8
nColumns=40
inDegrees=yes

Units are S.I. units (second, meters, Newtons, ...)
Angles are in degrees.

endheader
time	pelvis_tilt	pelvis_list	pelvis_rotation	pelvis_tx	pelvis_ty	pelvis_tz	hip_flexion_r	hip_adduction_r	hip_rotation_r	knee_angle_r	knee_angle_r_beta	ankle_angle_r	subtalar_angle_r	mtp_angle_r	hip_flexion_l	hip_adduction_l	hip_rotation_l	knee_angle_l	knee_angle_l_beta	ankle_angle_l	subtalar_angle_l	mtp_angle_l	lumbar_extension	lumbar_bending	lumbar_rotation	arm_flex_r	arm_add_r	arm_rot_r	elbow_flex_r	pro_sup_r	wrist_flex_r	wrist_dev_r	arm_flex_l	arm_add_l	arm_rot_l	elbow_flex_l	pro_sup_l	wrist_flex_l	wrist_dev_l
     25.02750000	     -2.95574785	     -5.17096324	      1.13214849	      0.86822615	      0.92530745	      0.44246900	     18.25616117	     -0.37270230	    -14.15061478	     20.18680313	     20.18680313	      6.81860641	      0.49448340	     -2.88714699	      6.93997129	    -11.91416095	     -4.46186242	     36.99705612	     36.99705612	     14.45182405	    -11.94784588	     -6.69869137	     -9.83998507	      4.37498989	      3.75564343	      1.59940284	    -18.98729871	    -25.26396994	     38.59050627	     46.71526083	      0.00000000	      0.00000000	      7.65808146	    -25.47818730	    -21.37675420	     57.19331138	     47.16544381	      0.00000000	      0.00000000
     25.03914286	     -3.03730869	     -5.21359437	      1.53795132	      0.86915985	      0.92574026	      0.44462643	     17.77047916	     -0.23126010	    -14.60509184	     19.89336164	     19.89336164	      7.00165872	      0.65144695	     -3.32691851	      8.66207889	    -12.10549987	     -3.07234637	     40.04278048	     40.04278048	     12.12671342	    -14.07123892	     -8.21381057	     -9.76750191	      4.50680089	      3.87107316	      1.12645329	    -19.31402066	    -22.63826790	     42.07260427	     46.38024325	      0.00000000	      0.00000000	      7.23057721	    -25.12883071	    -19.78185840	     57.06502226	     47.06785712	      0.00000000	      0.00000000
     25.05078571	     -3.02680156	     -5.30075681	      1.92296836	      0.86987901	      0.92621748	      0.44676745	     17.21374502	     -0.01084300	    -14.97341463	     19.61743412	     19.61743412	      7.25431892	      0.71019544	     -3.47595257	     10.42997086	    -12.34307239	     -1.82562304	     43.32938143	     43.32938143	     10.72897162	    -15.25955265	     -7.50717153	     -9.80003061	      4.65320456	      3.85139630	      2.07499629	    -19.27151079	    -22.15954259	     43.18672555	     46.30555097	      0.00000000	      0.00000000	      6.95115216	    -24.59444433	    -19.21815621	     56.78636311	     47.02701291	      0.00000000	      0.00000000
     25.06242857	     -2.99032530	     -5.45965528	      2.29535774	      0.87045707	      0.92661419	      0.44887956	     16.63457330	      0.30586325	    -15.31023002	     19.32088901	     19.32088901	      7.51498356	      0.73813207	     -3.53213684	     12.19308858	    -12.67350634	     -0.74317823	     46.51679830	     46.51679830	      9.30585611	    -16.06529615	     -7.06860375	     -9.89283430	      4.84795508	      4.06414749	      3.10781178	    -19.29703801	    -21.93526070	     43.92842680	     46.26928895	      0.00000000	      0.00000000	      6.83849208	    -23.88561008	    -18.80508296	     56.73214240	     46.99318723	      0.00000000	      0.00000000
     25.07407143	     -3.04256671	     -5.50180573	      2.65686942	      0.87078158	      0.92675573	      0.45069544	     16.23249447	      0.46340908	    -15.58227706	     19.14246719	     19.14246719	      7.69811661	      0.69780206	     -3.96781232	     14.20430122	    -12.62821522	      0.57635990	     49.91615337	     49.91615337	      9.45040380	    -16.40224036	     -2.43364317	     -9.91113251	      4.94919906	      4.08108852	      3.25034849	    -19.68303729	    -19.94562645	     47.11642992	     46.03319528	      0.00000000	      0.00000000	      6.31229596	    -23.66419474	    -17.26856335	     56.83042860	     46.89377064	      0.00000000	      0.00000000
     25.08571429	     -3.06783249	     -5.65318332	      2.99450785	      0.87100507	      0.92688641	      0.45256452	     15.80386159	      0.76321427	    -15.83077834	     18.93477622	     18.93477622	      7.91622900	      0.60552348	     -3.99104501	     15.99435515	    -12.77416123	      1.61868716	     52.68231203	     52.68231203	      8.28454959	    -17.07781529	     -1.80600796	     -9.94945899	      5.12359677	      4.34293101	      4.40435391	    -19.78418926	    -19.73413107	     47.89296893	     45.99930055	      0.00000000	      0.00000000	      6.12853606	    -22.98420494	    -16.86909156	     56.65259252	     46.86010019	      0.00000000	      0.00000000
     25.09735714	     -3.09791463	     -5.67560089	      3.30192198	      0.87106736	      0.92699826	      0.45422020	     15.45095458	      0.91747525	    -15.92066892	     18.84704409	     18.84704409	      8.16402726	      0.36484364	     -4.14378515	     17.86963799	    -12.59632700	      2.71355297	     55.50669013	     55.50669013	      9.04844768	    -17.09079251	      3.43213089	    -10.03053415	      5.16456323	      4.49800443	      4.86313314	    -20.28850765	    -17.86160794	     50.65091945	     45.80685872	      0.00000000	      0.00000000	      5.72278602	    -22.68645909	    -15.59655767	     56.55364385	     46.78304660	      0.00000000	      0.00000000
     25.10900000	     -3.11356988	     -5.73779491	      3.58847558	      0.87105259	      0.92711476	      0.45587463	     15.09587942	      1.12160476	    -16.00614962	     18.76405617	     18.76405617	      8.42396159	      0.11873644	     -4.14591548	     19.53797198	    -12.55465041	      3.49670144	     57.68701292	     57.68701292	      8.91823804	    -17.33413139	      5.60932746	    -10.11884959	      5.23261719	      4.58008160	      5.98883574	    -20.53098754	    -17.06301734	     52.26135625	     45.71761175	      0.00000000	      0.00000000	      5.36859828	    -22.26817490	    -14.91178245	     56.21756791	     46.74550451	      0.00000000	      0.00000000
